# AST/ASF file generated using VICON BodyLanguage
# -----------------------------------------------
:version 1.10
:name VICON
:units
  mass 1.0
  length 0.45
  angle deg
:documentation
   .ast/.asf automatically generated from VICON data using
   VICON BodyBuilder and BodyLanguage model FoxedUp or BRILLIANT.MOD
:root
   order TX TY TZ RX RY RZ
   axis XYZ
   position 0 0 0  
   orientation 0 0 0 
:bonedata
  begin
     id 1 
     name lhipjoint
     direction 0.646657 -0.683706 0.338203 
     length 2.4948 
     axis 0 0 0  XYZ
  end
  begin
     id 2 
     name lfemur
     direction 0.34202 -0.939693 0  
     length 6.79491  
     axis 0 0 20  XYZ
    dof rx ry rz
    limits (-160.0 20.0)
           (-70.0 70.0)
           (-60.0 70.0)
  end
  begin
     id 3 
     name ltibia
     direction 0.34202 -0.939693 0   
     length 7.56807   
     axis 0 0 20   XYZ
    dof rx
    limits (-10.0 170.0)
  end
  begin
     id 4 
     name lfoot
     direction 0.0679796 -0.186772 0.980048   
     length 2.53018   
     axis -90 7.62852e-016 20   XYZ
    dof rx rz
    limits (-45.0 90.0)
           (-70.0 20.0)
  end
  begin
     id 5 
     name ltoes
     direction 1.53625e-011 -4.21881e-011 1   
     length 1.26912   
     axis -90 7.62852e-016 20   XYZ
    dof rx
    limits (-90.0 20.0)
  end
  begin
     id 6 
     name rhipjoint
     direction -0.618868 -0.704065 0.348274   
     length 2.42265  
     axis 0 0 0  XYZ 
  end
  begin
     id 7 
     name rfemur
     direction -0.34202 -0.939693 0   
     length 6.73814   
     axis 0 0 -20   XYZ
    dof rx ry rz
    limits (-160.0 20.0)
           (-70.0 70.0)
           (-70.0 60.0)
  end
  begin
     id 8 
     name rtibia
     direction -0.34202 -0.939693 0   
     length 7.66799   
     axis 0 0 -20   XYZ
    dof rx
    limits (-10.0 170.0)
 end
 begin
     id 9 
     name rfoot
     direction -0.0727352 -0.199838 0.977125   
     length 2.57224  
     axis -90 -7.62852e-016 -20   XYZ
    dof rx rz
    limits (-45.0 90.0)
           (-20.0 70.0)
  end
  begin
     id 10 
     name rtoes
     direction -1.53501e-011 -4.21858e-011 1   
     length 1.28858   
     axis -90 -7.62852e-016 -20   XYZ
    dof rx
    limits (-90.0 20.0)
  end
  begin
     id 11 
     name lowerback
     direction -0.0172471 0.995767 -0.0902851   
     length 2.20206   
     axis 0 0 0   XYZ
    dof rx ry rz
    limits (-20.0 45.0)
           (-30.0 30.0)
           (-30.0 30.0)
  end
  begin
     id 12 
     name upperback
     direction -0.000110737 0.999714 0.0239043   
     length 2.19523   
     axis 0 0 0   XYZ
    dof rx ry rz
    limits (-20.0 45.0)
           (-30.0 30.0)
           (-30.0 30.0)
  end
  begin
     id 13 
     name thorax
     direction 0.00704869 0.997783 0.0661741   
     length 2.21977   
     axis 0 0 0   XYZ
    dof rx ry rz
    limits (-20.0 45.0)
           (-30.0 30.0)
           (-30.0 30.0)
  end
  begin
     id 14 
     name lowerneck
     direction -0.00407501 0.995527 0.0943846   
     length 1.83142   
     axis 0 0 0   XYZ
    dof rx ry rz
    limits (-20.0 45.0)
           (-30.0 30.0)
           (-30.0 30.0)
  end
  begin
     id 15 
     name upperneck
     direction 0.0640586 0.986486 -0.150807   
     length 1.84616   
     axis 0 0 0   XYZ
    dof rx ry rz
    limits (-20.0 45.0)
           (-30.0 30.0)
           (-30.0 30.0)
  end
  begin
     id 16
     name head
     direction 0.0188017 0.99791 -0.0618239  
     length 1.85932  
     axis 0 0 0   XYZ
    dof rx ry rz
    limits (-20.0 45.0)
           (-30.0 30.0)
           (-30.0 30.0)
  end
  begin
     id 17 
     name lclavicle
     direction 0.976074 0.206905 0.066852  
     length 3.81043  
     axis 0 0 0   XYZ
    dof ry rz
    limits (-20.0 10.0)
           (0.0 20.0)
  end
  begin
     id 18 
     name lhumerus
     direction 1 -4.48971e-011 1.86916e-027   
     length 5.37587   
     axis 180 -30 -90   XYZ
    dof rx ry rz
    limits (-60.0 90.0)
           (-90.0 90.0)
           (-90.0 90.0)
  end
  begin
     id 19
     name lradius
     direction 1 -4.48968e-011 1.69187e-027   
     length 3.35977   
     axis 180 -30 -90   XYZ
    dof rx
    limits (-10.0 170.0)
  end
  begin
     id 20
     name lwrist
     direction 1 -4.48968e-011 5.8978e-027   
     length 1.67988   
     axis -3.27506e-015 90 90   XYZ
    dof ry
    limits (-180.0 0.0)
 end
  begin
     id 21 
     name lhand
     direction 1 -4.49028e-011 1.18071e-026   
     length 0.561859   
     axis -7.52654e-015 90 90   XYZ
    dof rx rz
    limits (-90.0 90.0)
           (-45.0 45.0)
  end
  begin
     id 22 
     name lfingers
     direction 1 -4.48927e-011 2.35758e-026   
     length 0.452985   
     axis -1.50534e-014 90 90   XYZ
    dof rx
    limits (0.0 90.0)
  end
  begin
     id 23
     name lthumb
     direction 0.707107 -6.34898e-011 0.707107   
     length 0.650399   
     axis -90 45 5.69224e-014   XYZ
    dof rx rz
    limits (-45.0 45.0)
           (-45.0 45.0)
  end
  begin
     id 24 
     name rclavicle
     direction -0.988403 0.151789 0.00439714   
     length 3.6942  
     axis 0 0 0   XYZ 
    dof ry rz
    limits (-10.0 20.0)
           (-20.0 0.0)
  end
  begin
     id 25 
     name rhumerus
     direction -1 -4.48978e-011 1.62495e-027  
     length 5.22819   
     axis 180 30 90   XYZ
    dof rx ry rz
    limits (-90.0 60.0)
           (-90.0 90.0)
           (-90.0 90.0)
  end
  begin
     id 26 
     name rradius
     direction -1 -4.48961e-011 3.47796e-027   
     length 3.40764   
     axis 180 30 90   XYZ
    dof rx
    limits (-10.0 170.0)
  end
  begin
     id 27 
     name rwrist
     direction -1 -4.48949e-011 5.89602e-027   
     length 1.70382   
     axis -3.27506e-015 -90 -90   XYZ
    dof ry
    limits (-180.0 0.0)
  end
  begin
     id 28
     name rhand
     direction -1 -4.48977e-011 1.17973e-026   
     length 0.583255   
     axis -7.52654e-015 -90 -90   XYZ
    dof rx rz
    limits (-90.0 90.0)
           (-45.0 45.0)
  end
  begin
     id 29
     name rfingers
     direction -1 -4.49099e-011 2.36408e-026   
     length 0.470235   
     axis -1.50534e-014 -90 -90   XYZ
    dof rx
    limits (0.0 90.0)
  end
  begin
     id 30
     name rthumb
     direction -0.707107 -6.35011e-011 0.707107   
     length 0.675167   
     axis -90 -45 -5.69224e-014   XYZ
    dof rx rz
    limits (-45.0 45.0)
           (-45.0 45.0)
  end
:hierarchy
  begin
    root lhipjoint rhipjoint lowerback
    lhipjoint lfemur
    lfemur ltibia
    ltibia lfoot
    lfoot ltoes
    rhipjoint rfemur
    rfemur rtibia
    rtibia rfoot
    rfoot rtoes
    lowerback upperback
    upperback thorax
    thorax lowerneck lclavicle rclavicle
    lowerneck upperneck
    upperneck head
    lclavicle lhumerus
    lhumerus lradius
    lradius lwrist
    lwrist lhand lthumb
    lhand lfingers
    rclavicle rhumerus
    rhumerus rradius
    rradius rwrist
    rwrist rhand rthumb
    rhand rfingers
  end

#!OML:ASF G:\JayActor3\Patient Classification 1\Patient 1\Session 2\male.ASF
:FULLY-SPECIFIED
:DEGREES
307
root 41.089 16.6643 -5.6088 395.088 -81.9399 -395.752
lowerback -7.76608 -5.16332 -0.25208
upperback -0.974523 -7.22436 5.7936
thorax 4.11636 -3.70818 5.3368
lowerneck -5.24261 1.64337 2.01174
upperneck -5.56825 2.01031 1.86956
head -0.839213 0.891012 0.257155
rclavicle -3.85642e-014 1.43125e-014
rhumerus -41.4666 -11.7411 -65.4332
rradius 20.8768
rwrist -0.0577018
rhand -20.2842 3.7492
rfingers 7.12502
rthumb 6.06549 -26.144
lclavicle -3.85642e-014 1.43125e-014
lhumerus -33.2391 10.749 88.2848
lradius 25.9864
lwrist 5.80733
lhand -16.2864 17.2858
lfingers 7.12502
lthumb 9.92381 47.0318
rfemur -10.9055 1.54342 32.3786
rtibia 31.4711
rfoot -18.9608 -4.90433
rtoes 21.4692
lfemur -0.70105 9.33304 -8.57663
ltibia 58.3889
lfoot 16.7648 -0.993692
ltoes -4.99385
308
root 41.0078 16.6565 -5.61382 396.011 -81.6671 -396.872
lowerback -7.59997 -4.92526 -0.0133274
upperback -0.878614 -6.92465 5.77616
thorax 4.06271 -3.55511 5.23465
lowerneck -5.26409 1.42915 1.82021
upperneck -5.67121 1.73848 2.00429
head -0.870335 0.756387 0.326959
rclavicle 1.68967e-015 1.90833e-014
rhumerus -40.7401 -12.3988 -65.5396
rradius 19.9809
rwrist 1.32901
rhand -20.1447 3.98056
rfingers 7.12502
rthumb 6.20012 -25.9087
lclavicle 1.68967e-015 1.90833e-014
lhumerus -33.601 10.7305 87.9944
lradius 26.2538
lwrist 6.06243
lhand -16.6792 17.0937
lfingers 7.12502
lthumb 9.54489 46.8575
rfemur -10.2189 1.13031 32.7265
rtibia 31.0765
rfoot -18.9938 -4.65096
rtoes 21.5875
lfemur -2.35607 8.99655 -8.23119
ltibia 60.6608
lfoot 15.5882 -1.27036
ltoes -6.40645
309
root 40.9281 16.6497 -5.61872 396.689 -81.4364 -397.72
lowerback -7.45984 -4.67876 0.181582
upperback -0.790002 -6.60834 5.74213
thorax 4.01963 -3.39386 5.13799
lowerneck -5.28101 1.21013 1.61821
upperneck -5.76014 1.4615 2.14982
head -0.897266 0.619771 0.402102
rclavicle 5.9536e-014 -1.90833e-014
rhumerus -40.0113 -13.0752 -65.6462
rradius 19.0961
rwrist 2.81569
rhand -20.033 4.18449
rfingers 7.12502
rthumb 6.30794 -25.7016
lclavicle 5.9536e-014 -1.90833e-014
lhumerus -33.9456 10.701 87.6895
lradius 26.4841
lwrist 6.34516
lhand -17.095 16.9185
lfingers 7.12502
lthumb 9.14368 46.7002
rfemur -9.57508 0.739522 33.0162
rtibia 30.701
rfoot -19.0273 -4.43074
rtoes 21.6139
lfemur -4.00366 8.64128 -7.97908
ltibia 62.7595
lfoot 14.3544 -1.49865
ltoes -7.86072
310
root 40.8497 16.6434 -5.62417 397.044 -81.2032 -398.232
lowerback -7.33626 -4.44149 0.334345
upperback -0.710531 -6.29957 5.69781
thorax 3.9825 -3.23659 5.05061
lowerneck -5.29296 0.989918 1.39325
upperneck -5.82444 1.18507 2.31628
head -0.916861 0.484426 0.487795
rclavicle 1.03766e-013 -5.1684e-014
rhumerus -39.2887 -13.745 -65.767
rradius 18.242
rwrist 4.38835
rhand -19.98 4.32736
rfingers 7.12502
rthumb 6.35909 -25.5572
lclavicle 1.03766e-013 -5.1684e-014
lhumerus -34.2772 10.6666 87.3679
lradius 26.6793
lwrist 6.6456
lhand -17.5209 16.7955
lfingers 7.12502
lthumb 8.73272 46.5948
rfemur -8.95642 0.363658 33.2727
rtibia 30.3396
rfoot -19.0855 -4.26597
rtoes 21.5964
lfemur -5.64008 8.23073 -7.79496
ltibia 64.6915
lfoot 13.1127 -1.62612
ltoes -9.23432
311
root 40.7724 16.6375 -5.6289 397.424 -80.9891 -398.743
lowerback -7.24874 -4.19458 0.497574
upperback -0.638415 -5.97874 5.64385
thorax 3.95656 -3.07274 4.94496
lowerneck -5.2999 0.770214 1.14723
upperneck -5.8694 0.911389 2.50929
head -0.930626 0.35119 0.585529
rclavicle 1.28216e-014 -2.22639e-014
rhumerus -38.5847 -14.3677 -65.9316
rradius 17.4592
rwrist 5.97561
rhand -19.9405 4.43794
rfingers 7.12502
rthumb 6.39725 -25.4454
lclavicle 1.28216e-014 -2.22639e-014
lhumerus -34.5913 10.6272 87.0242
lradius 26.8347
lwrist 6.95008
lhand -17.9361 16.7257
lfingers 7.12502
lthumb 8.33202 46.5413
rfemur -8.37083 0.0156805 33.5157
rtibia 29.986
rfoot -19.1509 -4.11365
rtoes 21.5734
lfemur -7.26965 7.80079 -7.66232
ltibia 66.4681
lfoot 11.8447 -1.61363
ltoes -10.5283
312
root 40.6964 16.6317 -5.63282 397.923 -80.7787 -399.343
lowerback -7.2001 -3.93762 0.693604
upperback -0.57394 -5.64785 5.58478
thorax 3.94213 -2.9031 4.81318
lowerneck -5.30156 0.551808 0.880561
upperneck -5.89583 0.641421 2.72888
head -0.938675 0.220478 0.695364
rclavicle -1.30204e-014 -3.10104e-014
rhumerus -37.9025 -14.933 -66.1458
rradius 16.7633
rwrist 7.53848
rhand -19.8978 4.53323
rfingers 7.12502
rthumb 6.43852 -25.3489
lclavicle -1.30204e-014 -3.10104e-014
lhumerus -34.881 10.5947 86.6536
lradius 26.9375
lwrist 7.22342
lhand -18.3181 16.6985
lfingers 7.12502
lthumb 7.96331 46.5285
rfemur -7.81626 -0.306319 33.7667
rtibia 29.6314
rfoot -19.2195 -3.96932
rtoes 21.5414
lfemur -8.89709 7.35348 -7.55629
ltibia 68.0967
lfoot 10.5595 -1.47584
ltoes -11.791
313
root 40.6211 16.6259 -5.63571 398.562 -80.5612 -400.064
lowerback -7.19033 -3.67186 0.937863
upperback -0.513355 -5.31046 5.52166
thorax 3.94293 -2.72924 4.64763
lowerneck -5.29438 0.333375 0.591752
upperneck -5.90867 0.373588 2.97977
head -0.942942 0.0913358 0.819174
rclavicle -4.30369e-014 -1.82882e-014
rhumerus -37.2409 -15.4231 -66.4168
rradius 16.1661
rwrist 9.04507
rhand -19.8343 4.61197
rfingers 7.12502
rthumb 6.4998 -25.2683
lclavicle -4.30369e-014 -1.82882e-014
lhumerus -35.1396 10.5815 86.25
lradius 26.976
lwrist 7.4375
lhand -18.6579 16.7053
lfingers 7.12502
lthumb 7.63539 46.5475
rfemur -7.27505 -0.611939 34.0346
rtibia 29.2682
rfoot -19.2946 -3.80088
rtoes 21.6028
lfemur -10.5154 6.88547 -7.46262
ltibia 69.581
lfoot 9.26918 -1.21799
ltoes -13.0753
314
root 40.5454 16.6203 -5.63736 399.238 -80.3404 -400.81
lowerback -7.21792 -3.39948 1.21805
upperback -0.453446 -4.96834 5.44862
thorax 3.96315 -2.55209 4.44934
lowerneck -5.28223 0.112652 0.290589
upperneck -5.91002 0.103918 3.25413
head -0.943115 -0.0384322 0.953063
rclavicle 2.15681e-014 -2.46493e-014
rhumerus -36.6 -15.7975 -66.7682
rradius 15.6844
rwrist 10.4156
rhand -19.7507 4.67658
rfingers 7.12502
rthumb 6.58047 -25.2012
lclavicle 2.15681e-014 -2.46493e-014
lhumerus -35.366 10.5946 85.8085
lradius 26.9468
lwrist 7.57322
lhand -18.9381 16.7159
lfingers 7.12502
lthumb 7.3649 46.5678
rfemur -6.73405 -0.930303 34.2994
rtibia 28.8899
rfoot -19.3563 -3.59692
rtoes 21.6939
lfemur -12.0996 6.38884 -7.39698
ltibia 70.9129
lfoot 8.00332 -0.847855
ltoes -14.3047
315
root 40.4695 16.6151 -5.63803 399.905 -80.1138 -401.535
lowerback -7.27336 -3.1224 1.52636
upperback -0.394728 -4.62332 5.36538
thorax 3.99859 -2.37264 4.22327
lowerneck -5.26405 -0.114164 -0.00978235
upperneck -5.9057 -0.173807 3.53487
head -0.940827 -0.172204 1.08959
rclavicle 1.98785e-014 -2.94201e-014
rhumerus -35.9728 -16.03 -67.2133
rradius 15.3297
rwrist 11.5951
rhand -19.6361 4.67097
rfingers 7.12502
rthumb 6.69112 -25.2033
lclavicle 1.98785e-014 -2.94201e-014
lhumerus -35.5608 10.6291 85.3321
lradius 26.8578
lwrist 7.6333
lhand -19.1532 16.7294
lfingers 7.12502
lthumb 7.15725 46.5884
rfemur -6.19124 -1.26128 34.5578
rtibia 28.4936
rfoot -19.4026 -3.36344
rtoes 21.8059
lfemur -13.6494 5.86313 -7.35836
ltibia 72.0903
lfoot 6.80178 -0.373447
ltoes -15.4397
316
root 40.3932 16.6104 -5.63819 400.44 -79.8819 -402.131
lowerback -7.33841 -2.84688 1.83946
upperback -0.337296 -4.28082 5.26896
thorax 4.04146 -2.19388 3.98018
lowerneck -5.24375 -0.34751 -0.308105
upperneck -5.88877 -0.460492 3.8213
head -0.93312 -0.310297 1.22826
rclavicle -1.25731e-014 1.51076e-014
rhumerus -35.3621 -16.074 -67.7713
rradius 15.1181
rwrist 12.5089
rhand -19.4972 4.56601
rfingers 7.12502
rthumb 6.82523 -25.304
lclavicle -1.25731e-014 1.51076e-014
lhumerus -35.729 10.6834 84.8203
lradius 26.7144
lwrist 7.61895
lhand -19.3084 16.7337
lfingers 7.12502
lthumb 7.00742 46.5977
rfemur -5.63477 -1.60944 34.7969
rtibia 28.0794
rfoot -19.4346 -3.11419
rtoes 21.9155
lfemur -15.1485 5.29808 -7.35559
ltibia 73.1079
lfoot 5.69305 0.192339
ltoes -16.4087
317
root 40.3166 16.6062 -5.63801 400.781 -79.653 -402.535
lowerback -7.4056 -2.57523 2.13998
upperback -0.282659 -3.94166 5.15538
thorax 4.08718 -2.01641 3.72617
lowerneck -5.22229 -0.588604 -0.594308
upperneck -5.8615 -0.758652 4.10183
head -0.920377 -0.454139 1.36362
rclavicle -8.89561e-015 -3.57812e-014
rhumerus -34.7682 -15.9241 -68.4398
rradius 15.0326
rwrist 13.1513
rhand -19.3803 4.39032
rfingers 7.12502
rthumb 6.93802 -25.476
lclavicle -8.89561e-015 -3.57812e-014
lhumerus -35.8805 10.7345 84.2807
lradius 26.5368
lwrist 7.55642
lhand -19.4072 16.7395
lfingers 7.12502
lthumb 6.91211 46.6066
rfemur -5.06734 -1.96887 35.0039
rtibia 27.6519
rfoot -19.4564 -2.86622
rtoes 21.9945
lfemur -16.5914 4.68944 -7.40144
ltibia 73.9668
lfoot 4.68577 0.838589
ltoes -17.118
